HIERARCHY
ROOT Elbow
{
	OFFSET	0.00	0.00	0.00
	CHANNELS 6 Xposition Yposition Zposition Zrotation Xrotation Yrotation
	JOINT L_Wrist
	{
		OFFSET	 0.208349	 0.000000	 0.000000
		CHANNELS 3 Zrotation Xrotation Yrotation
		JOINT L_index_Proximal
		{
			OFFSET	 0.093499	 0.010637	-0.002084
			CHANNELS 3 Zrotation Xrotation Yrotation
			JOINT L_index_b
			{
				OFFSET	 0.033152	 0.000000	 0.000000
				CHANNELS 3 Zrotation Xrotation Yrotation
				JOINT L_index_c
				{
					OFFSET	 0.018651	 0.000000	 0.000000
					CHANNELS 3 Zrotation Xrotation Yrotation
					End Site
					{
						OFFSET	 0.018651	 0.000000	 0.000000
					}
				}
			}
		}
		JOINT L_middle_Proximal
		{
			OFFSET	 0.090632	-0.006115	-0.003750
			CHANNELS 3 Zrotation Xrotation Yrotation
			JOINT L_middle_b
			{
				OFFSET	 0.037195	 0.000000	 0.000000
				CHANNELS 3 Zrotation Xrotation Yrotation
				JOINT L_middle_c
				{
					OFFSET	 0.021943	 0.000000	 0.000000
					CHANNELS 3 Zrotation Xrotation Yrotation
					End Site
					{
						OFFSET	 0.021943	 0.000000	 0.000000
					}
				}
			}
		}
		JOINT L_pinky_Proximal
		{
			OFFSET	 0.074015	-0.035449	-0.000417
			CHANNELS 3 Zrotation Xrotation Yrotation
			JOINT L_pinky_b
			{
				OFFSET	 0.027285	 0.000000	 0.000000
				CHANNELS 3 Zrotation Xrotation Yrotation
				JOINT L_pinky_c
				{
					OFFSET	 0.015093	 0.000000	 0.000000
					CHANNELS 3 Zrotation Xrotation Yrotation
					End Site
					{
						OFFSET	 0.015093	 0.000000	 0.000000
					}
				}
			}
		}
		JOINT L_ring_Proximal
		{
			OFFSET	 0.082801	-0.021859	-0.003750
			CHANNELS 3 Zrotation Xrotation Yrotation
			JOINT L_ring_b
			{
				OFFSET	 0.034478	 0.000000	 0.000000
				CHANNELS 3 Zrotation Xrotation Yrotation
				JOINT L_ring_c
				{
					OFFSET	 0.021377	 0.000000	 0.000000
					CHANNELS 3 Zrotation Xrotation Yrotation
					End Site
					{
						OFFSET	 0.021377	 0.000000	 0.000000
					}
				}
			}
		}
		JOINT L_thumb_Proximal
		{
			OFFSET	 0.030306	 0.018528	 0.004584
			CHANNELS 3 Zrotation Xrotation Yrotation
			JOINT L_thumb_a
			{
				OFFSET	 0.038520	 0.000000	 0.000000
				CHANNELS 3 Zrotation Xrotation Yrotation
				JOINT L_thumb_b
				{
					OFFSET	 0.026310	 0.000000	 0.000000
					CHANNELS 3 Zrotation Xrotation Yrotation
					End Site
					{
						OFFSET	 0.026310	 0.000000	 0.000000
					}
				}
			}
		}
	}
}
MOTION
Frames:    19
Frame Time: 0.01666667
 0.519424	-0.026654	 0.826912	-59.399790	-17.543920	-161.456500	 5.803749	-2.269522	-12.988840	 0.746328	 0.067058	 15.633540	 2.361987	-0.070446	-3.416061	-2.181379	 0.038105	-2.001256	-11.427870	-7.378170	-56.325900	 4.488950	-3.298895	-72.610880	-2.453322	 1.097046	-48.180090	-34.293510	-16.086940	-50.581180	 4.290145	-2.360266	-57.619880	 3.336024	-1.600134	-51.239800	-19.823130	-10.791850	-56.464730	 5.267885	-3.459046	-66.559010	-0.435882	 0.180207	-44.922880	 59.375740	 48.544050	-60.278320	-1.978023	 0.339104	-19.452960	-0.625397	 0.182937	-32.612060
 0.519703	-0.026633	 0.826823	-59.388020	-17.545900	-161.468500	 5.778083	-2.276945	-13.032110	 0.702830	 0.064283	 15.625820	 2.385738	-0.071101	-3.413615	-2.159167	 0.037560	-1.992827	-11.427570	-7.379213	-56.288650	 4.502016	-3.307691	-72.597500	-2.472059	 1.106174	-48.208780	-34.297490	-16.085210	-50.576600	 4.287057	-2.357381	-57.595410	 3.363679	-1.613387	-51.239640	-19.824800	-10.791300	-56.427220	 5.290519	-3.472893	-66.543330	-0.434080	 0.179449	-44.920100	 59.526490	 48.428560	-60.396470	-1.947031	 0.333750	-19.452010	-0.634407	 0.185926	-32.668290
 0.520650	-0.026804	 0.826685	-59.353950	-17.636610	-161.469400	 5.731304	-2.299974	-13.166470	 0.742118	 0.067170	 15.674550	 2.430320	-0.071341	-3.362403	-2.143734	 0.036229	-1.936203	-11.314970	-7.456624	-55.986570	 4.680328	-3.424939	-72.377320	-2.510821	 1.130954	-48.491280	-34.322930	-16.064510	-50.672980	 4.198821	-2.309277	-57.605170	 3.275717	-1.574790	-51.342240	-19.830410	-10.788180	-56.396070	 5.374812	-3.525757	-66.506060	-0.385915	 0.159511	-44.911860	 59.740630	 48.194770	-60.743510	-1.968196	 0.337755	-19.472750	-0.716128	 0.209734	-32.645650
 0.520882	-0.026815	 0.826641	-59.350950	-17.668090	-161.463500	 5.708987	-2.302632	-13.181800	 0.768615	 0.069024	 15.691460	 2.456840	-0.071658	-3.340680	-2.125887	 0.035392	-1.907448	-11.299740	-7.467342	-55.929480	 4.675614	-3.417265	-72.309780	-2.527915	 1.141217	-48.587540	-34.345940	-16.044230	-50.779310	 4.155197	-2.288011	-57.662950	 3.251941	-1.566153	-51.422250	-19.865220	-10.765420	-56.465440	 5.355324	-3.514550	-66.529790	-0.384004	 0.158687	-44.905080	 59.764600	 48.138720	-60.859910	-1.951174	 0.335049	-19.484830	-0.709522	 0.207831	-32.650540
 0.521070	-0.026654	 0.826662	-59.371760	-17.708070	-161.452600	 5.642973	-2.307355	-13.209570	 0.891701	 0.077442	 15.761520	 2.507931	-0.072342	-3.304030	-2.117845	 0.034124	-1.846171	-11.236370	-7.512558	-55.654380	 4.833446	-3.512497	-71.997010	-2.634222	 1.196638	-48.855360	-34.342310	-16.048090	-50.754190	 4.133627	-2.270735	-57.548500	 3.199965	-1.537620	-51.320430	-19.842790	-10.780310	-56.404070	 5.332860	-3.495020	-66.458090	-0.451872	 0.186317	-44.814330	 59.805600	 48.105960	-60.893650	-1.979533	 0.338362	-19.397820	-0.706131	 0.206630	-32.620610
 0.521039	-0.026562	 0.826654	-59.402960	-17.732630	-161.441100	 5.586379	-2.309488	-13.221830	 1.159565	 0.096238	 15.902400	 2.627649	-0.072795	-3.173362	-2.058133	 0.030617	-1.704448	-11.154680	-7.566981	-55.468510	 4.947650	-3.592889	-71.956860	-2.604059	 1.184494	-48.912370	-34.366380	-16.037030	-50.732910	 4.061965	-2.226746	-57.448350	 3.112657	-1.493681	-51.261750	-19.846090	-10.778690	-56.368000	 5.292664	-3.465303	-66.407310	-0.513337	 0.211209	-44.729100	 59.673930	 48.193400	-60.831270	-2.082345	 0.355409	-19.370030	-0.706030	 0.205664	-32.479840
 0.520880	-0.026664	 0.826583	-59.414910	-17.750030	-161.437500	 5.567850	-2.308053	-13.213520	 1.265571	 0.104203	 15.984080	 2.643924	-0.072261	-3.130604	-2.083830	 0.030819	-1.694596	-11.126060	-7.585626	-55.420590	 4.969331	-3.609462	-71.969150	-2.575556	 1.171385	-48.907170	-34.370700	-16.035750	-50.719990	 4.054460	-2.221019	-57.413490	 3.097393	-1.485072	-51.223100	-19.848280	-10.777520	-56.351330	 5.288706	-3.460637	-66.375820	-0.527107	 0.216659	-44.688370	 59.626460	 48.237930	-60.774290	-2.117892	 0.360984	-19.343340	-0.739661	 0.215251	-32.451280
 0.520741	-0.026714	 0.826359	-59.446480	-17.778370	-161.445800	 5.544321	-2.304510	-13.192870	 1.410146	 0.116261	 16.156750	 2.649254	-0.070249	-3.037210	-2.116017	 0.031016	-1.679307	-11.133970	-7.580606	-55.426240	 4.943122	-3.592927	-72.007490	-2.532081	 1.149558	-48.830230	-34.403160	-16.019040	-50.715090	 4.005888	-2.193770	-57.399830	 3.061344	-1.465345	-51.148990	-19.871200	-10.762880	-56.372560	 5.280600	-3.454671	-66.365780	-0.534199	 0.219192	-44.618420	 59.742010	 48.202610	-60.721390	-2.074767	 0.352072	-19.259840	-0.686214	 0.199940	-32.488040
 0.520651	-0.026746	 0.826232	-59.465900	-17.788140	-161.458400	 5.549074	-2.301835	-13.177230	 1.463420	 0.120291	 16.187050	 2.634990	-0.069901	-3.038619	-2.128151	 0.031203	-1.679791	-11.144540	-7.573277	-55.468260	 4.907732	-3.570522	-72.058400	-2.498924	 1.133045	-48.774850	-34.411600	-16.013670	-50.727050	 3.984215	-2.182713	-57.417860	 3.051211	-1.459600	-51.121890	-19.881150	-10.756320	-56.397760	 5.281992	-3.456312	-66.377020	-0.528889	 0.216855	-44.588820	 59.754910	 48.222540	-60.652870	-2.097384	 0.355154	-19.220160	-0.699199	 0.203773	-32.497410
 0.520663	-0.026715	 0.826240	-59.485480	-17.794530	-161.472000	 5.549081	-2.301835	-13.177240	 1.463413	 0.120290	 16.187060	 2.634996	-0.069901	-3.038624	-2.128154	 0.031200	-1.679789	-11.144540	-7.573282	-55.468250	 4.907729	-3.570519	-72.058410	-2.498917	 1.133041	-48.774840	-34.411610	-16.013680	-50.727030	 3.984210	-2.182711	-57.417870	 3.051214	-1.459615	-51.121900	-19.881150	-10.756330	-56.397740	 5.281985	-3.456318	-66.377040	-0.528885	 0.216851	-44.588810	 59.754890	 48.222550	-60.652860	-2.097375	 0.355156	-19.220160	-0.699202	 0.203774	-32.497420
 0.520367	-0.026742	 0.826054	-59.542710	-17.746120	-161.508300	 5.554178	-2.289609	-13.105930	 1.561477	 0.127218	 16.208900	 2.614242	-0.070421	-3.085487	-2.109378	 0.030700	-1.667501	-11.164240	-7.559352	-55.557530	 4.884408	-3.564082	-72.219990	-2.425038	 1.095611	-48.620870	-34.425240	-16.009350	-50.690390	 3.956593	-2.167293	-57.411420	 3.053154	-1.459098	-51.077900	-19.884720	-10.754180	-56.390940	 5.287068	-3.461572	-66.406120	-0.478453	 0.196018	-44.557230	 59.741970	 48.308440	-60.443380	-2.153639	 0.364115	-19.190280	-0.661555	 0.193322	-32.579010
 0.520189	-0.026794	 0.825937	-59.570420	-17.716060	-161.522100	 5.554887	-2.285776	-13.083570	 1.579219	 0.128453	 16.211330	 2.583928	-0.069973	-3.101906	-2.124965	 0.031088	-1.676106	-11.190840	-7.542063	-55.595620	 4.842506	-3.534221	-72.231250	-2.471438	 1.115366	-48.574260	-34.432230	-16.008390	-50.655380	 3.955865	-2.165886	-57.389050	 3.034708	-1.448680	-51.029020	-19.902190	-10.743170	-56.394740	 5.270144	-3.450112	-66.400440	-0.509589	 0.208673	-44.536940	 59.781110	 48.299040	-60.419030	-2.132671	 0.361238	-19.224870	-0.635381	 0.185524	-32.553980
 0.519950	-0.026806	 0.825764	-59.624960	-17.650620	-161.546500	 5.570124	-2.282807	-13.066260	 1.596127	 0.130099	 16.241730	 2.577752	-0.070310	-3.124273	-2.127694	 0.031393	-1.690547	-11.234260	-7.514589	-55.618270	 4.765935	-3.478008	-72.226440	-2.526964	 1.139697	-48.546530	-34.468390	-15.994500	-50.589880	 3.947096	-2.159818	-57.361180	 3.036323	-1.448305	-50.993310	-19.925620	-10.728810	-56.370100	 5.256711	-3.438979	-66.364990	-0.538672	 0.220445	-44.512550	 59.960240	 48.198610	-60.458050	-2.056536	 0.348390	-19.228370	-0.593344	 0.173478	-32.595360
 0.519889	-0.026738	 0.825668	-59.655770	-17.607680	-161.558000	 5.615535	-2.281574	-13.059070	 1.554762	 0.126696	 16.204530	 2.582561	-0.071544	-3.173164	-2.094764	 0.031429	-1.719035	-11.213320	-7.528319	-55.583070	 4.749154	-3.467098	-72.247570	-2.527808	 1.139871	-48.538820	-34.460460	-16.005470	-50.502410	 3.958338	-2.165144	-57.342360	 3.053138	-1.456639	-51.003060	-19.918270	-10.734250	-56.308880	 5.250455	-3.435011	-66.366920	-0.528491	 0.216363	-44.527650	 60.156150	 48.098880	-60.473000	-2.013427	 0.340526	-19.196820	-0.602267	 0.176563	-32.679270
 0.519759	-0.026634	 0.825603	-59.707220	-17.562590	-161.574000	 5.639944	-2.283471	-13.070130	 1.524694	 0.124595	 16.199410	 2.566144	-0.071432	-3.188520	-2.094341	 0.031571	-1.727183	-11.233270	-7.516124	-55.572070	 4.727625	-3.448884	-72.208300	-2.543306	 1.147387	-48.558560	-34.476270	-16.000060	-50.465610	 3.962384	-2.167129	-57.337230	 3.045228	-1.453475	-51.021820	-19.935980	-10.723270	-56.301690	 5.242010	-3.428384	-66.350180	-0.549450	 0.225103	-44.556860	 60.253430	 48.031660	-60.525670	-1.958808	 0.331107	-19.187200	-0.576188	 0.169040	-32.701080
 0.519754	-0.026509	 0.825785	-59.790660	-17.427080	-161.602700	 5.731867	-2.296134	-13.143980	 1.425315	 0.118803	 16.255910	 2.525113	-0.071867	-3.260039	-2.110538	 0.033196	-1.802036	-11.163680	-7.565306	-55.262990	 4.876547	-3.547961	-72.060420	-2.629557	 1.189315	-48.667180	-34.505560	-15.999400	-50.278140	 3.970816	-2.168142	-57.257190	 3.018862	-1.442773	-51.080130	-19.937100	-10.725200	-56.111520	 5.283363	-3.450174	-66.269870	-0.556133	 0.227915	-44.570300	 60.540160	 47.866730	-60.592530	-1.878747	 0.316909	-19.148330	-0.607768	 0.178987	-32.817460
 0.519736	-0.026481	 0.825904	-59.824640	-17.362020	-161.607700	 5.747334	-2.295799	-13.142020	 1.395509	 0.116080	 16.208880	 2.519231	-0.072127	-3.279402	-2.100253	 0.033413	-1.822858	-11.154920	-7.572107	-55.190030	 4.909310	-3.568286	-72.006690	-2.589972	 1.171280	-48.662530	-34.499030	-16.004530	-50.256080	 4.008221	-2.187685	-57.237530	 3.037737	-1.452550	-51.103150	-19.934790	-10.727050	-56.081680	 5.307564	-3.463826	-66.237050	-0.550428	 0.225564	-44.567180	 60.529980	 47.861550	-60.618300	-1.909302	 0.321920	-19.139540	-0.629519	 0.185388	-32.816440
 0.519592	-0.026525	 0.826088	-59.855280	-17.307610	-161.609100	 5.759632	-2.291905	-13.119330	 1.369068	 0.113499	 16.155320	 2.506717	-0.072160	-3.297387	-2.095742	 0.033307	-1.821038	-11.136100	-7.584875	-55.127880	 4.932318	-3.583249	-71.979630	-2.547896	 1.152292	-48.664280	-34.493460	-16.007460	-50.255700	 4.037215	-2.202972	-57.225440	 3.073302	-1.470305	-51.125790	-19.927720	-10.731730	-56.061550	 5.330239	-3.478069	-66.228460	-0.525494	 0.215346	-44.567320	 60.474040	 47.879680	-60.641400	-1.952606	 0.329537	-19.156870	-0.649700	 0.191336	-32.819030
 0.519401	-0.026636	 0.826454	-59.897350	-17.226550	-161.609100	 5.777322	-2.286507	-13.087820	 1.287690	 0.107073	 16.084220	 2.445375	-0.071952	-3.370265	-2.122734	 0.034722	-1.874093	-11.169880	-7.564508	-55.103810	 4.905951	-3.557199	-71.874390	-2.540388	 1.149666	-48.693110	-34.466370	-16.016780	-50.317680	 4.093901	-2.231421	-57.171850	 3.157787	-1.513550	-51.208770	-19.951000	-10.716880	-56.086460	 5.347227	-3.487075	-66.197090	-0.480944	 0.197358	-44.622920	 60.390290	 47.884610	-60.733000	-1.974023	 0.334351	-19.225660	-0.670555	 0.197306	-32.792500
